<svg width="21" height="20" viewBox="0 0 21 20" fill="none" xmlns="http://www.w3.org/2000/svg">
<path d="M9.81731 10C12.4911 10 14.6587 7.98528 14.6587 5.5C14.6587 3.01472 12.4911 1 9.81731 1C7.1435 1 4.97595 3.01472 4.97595 5.5C4.97595 7.98528 7.1435 10 9.81731 10Z" stroke="#292D32" stroke-width="1.4" stroke-linecap="round" stroke-linejoin="round"/>
<path d="M1.5 19.0001C1.5 15.5171 5.22784 12.7001 9.81744 12.7001C10.747 12.7001 11.6475 12.8171 12.4899 13.0331" stroke="#292D32" stroke-width="1.4" stroke-linecap="round" stroke-linejoin="round"/>
<path d="M19.4999 15.3999C19.4999 15.6879 19.4612 15.9669 19.3838 16.2369C19.2966 16.5969 19.1417 16.9479 18.9384 17.2539C18.2703 18.2979 17.0405 18.9999 15.6269 18.9999C14.6295 18.9999 13.7291 18.6489 13.0513 18.0729C12.7608 17.8389 12.509 17.5599 12.3154 17.2539C11.9571 16.7139 11.7538 16.0749 11.7538 15.3999C11.7538 14.4279 12.1701 13.5369 12.8479 12.8889C13.5548 12.2139 14.5424 11.7999 15.6269 11.7999C16.7694 11.7999 17.8055 12.2589 18.5026 12.9969C19.1223 13.6359 19.4999 14.4819 19.4999 15.3999Z" stroke="#292D32" stroke-width="1.4" stroke-miterlimit="10" stroke-linecap="round" stroke-linejoin="round"/>
<path d="M17.0694 15.3815H14.184" stroke="#292D32" stroke-width="1.4" stroke-miterlimit="10" stroke-linecap="round" stroke-linejoin="round"/>
<path d="M15.6267 14.0676V16.7586" stroke="#292D32" stroke-width="1.4" stroke-miterlimit="10" stroke-linecap="round" stroke-linejoin="round"/>
</svg>
