<svg width="26" height="25" viewBox="0 0 26 25" fill="none" xmlns="http://www.w3.org/2000/svg">
<path d="M24.8146 10.6094L23.6283 15.6691C22.6115 20.0389 20.6021 21.8062 16.8255 21.443C16.2203 21.3946 15.5666 21.2857 14.8645 21.1162L12.8309 20.632C7.78329 19.4337 6.22178 16.9401 7.40804 11.8803L8.5943 6.80848C8.8364 5.77959 9.12691 4.88384 9.49005 4.14545C10.9063 1.21612 13.3151 0.429317 17.3581 1.38559L19.3796 1.85767C24.4514 3.04393 26.0008 5.5496 24.8146 10.6094Z" stroke="#292D32" stroke-width="1.5" stroke-linecap="round" stroke-linejoin="round"/>
<path d="M16.8257 21.4431C16.0752 21.9515 15.131 22.3752 13.9811 22.7504L12.0685 23.3798C7.26298 24.9292 4.7331 23.634 3.1716 18.8285L1.6222 14.0471C0.0727973 9.24158 1.35589 6.6996 6.16145 5.1502L8.07399 4.52075C8.57028 4.36339 9.04236 4.23024 9.49024 4.14551C9.1271 4.88389 8.83659 5.77964 8.59449 6.80854L7.40823 11.8804C6.22197 16.9402 7.78348 19.4337 12.8311 20.6321L14.8647 21.1163C15.5668 21.2857 16.2204 21.3947 16.8257 21.4431Z" stroke="#292D32" stroke-width="1.5" stroke-linecap="round" stroke-linejoin="round"/>
</svg>
