<svg width="25" height="25" viewBox="0 0 25 25" fill="none" xmlns="http://www.w3.org/2000/svg">
<path d="M9 15.25C9 16.7725 10.1874 18 11.6627 18H14.6732C15.9565 18 17 16.926 17 15.6041C17 14.1642 16.3643 13.6567 15.4168 13.3262L10.5832 11.6738C9.63568 11.3433 9 10.8358 9 9.39592C9 8.07403 10.0435 7 11.3268 7H14.3373C15.8126 7 17 8.22747 17 9.75" stroke="#292D32" stroke-width="1.5" stroke-linecap="round" stroke-linejoin="round"/>
<path d="M13 6V19" stroke="#292D32" stroke-width="1.5" stroke-linecap="round" stroke-linejoin="round"/>
<path d="M12.5 24C18.8513 24 24 18.8513 24 12.5C24 6.14873 18.8513 1 12.5 1C6.14873 1 1 6.14873 1 12.5C1 18.8513 6.14873 24 12.5 24Z" stroke="#292D32" stroke-width="1.5" stroke-linecap="round" stroke-linejoin="round"/>
</svg>
