<svg width="25" height="25" viewBox="0 0 25 25" fill="none" xmlns="http://www.w3.org/2000/svg">
<path d="M10.8269 11.5222H7.77937C7.05487 11.5222 6.46838 12.1087 6.46838 12.8332V18.7212H10.8269V11.5222V11.5222Z" stroke="#292D32" stroke-width="1.5" stroke-miterlimit="10" stroke-linecap="round" stroke-linejoin="round"/>
<path d="M13.8758 6.28955H12.1278C11.4033 6.28955 10.8168 6.87607 10.8168 7.60057V18.7096H15.1753V7.60057C15.1753 6.87607 14.6003 6.28955 13.8758 6.28955Z" stroke="#292D32" stroke-width="1.5" stroke-miterlimit="10" stroke-linecap="round" stroke-linejoin="round"/>
<path d="M18.2307 13.4771H15.1832V18.7096H19.5417V14.7881C19.5302 14.0636 18.9437 13.4771 18.2307 13.4771Z" stroke="#292D32" stroke-width="1.5" stroke-miterlimit="10" stroke-linecap="round" stroke-linejoin="round"/>
<path d="M9.05 24H15.95C21.7 24 24 21.7 24 15.95V9.05C24 3.3 21.7 1 15.95 1H9.05C3.3 1 1 3.3 1 9.05V15.95C1 21.7 3.3 24 9.05 24Z" stroke="#292D32" stroke-width="1.5" stroke-linecap="round" stroke-linejoin="round"/>
</svg>
