<svg width="24" height="25" viewBox="0 0 24 25" fill="none" xmlns="http://www.w3.org/2000/svg">
<path d="M9.305 11.2287C9.1925 11.2175 9.0575 11.2175 8.93375 11.2287C6.25625 11.1387 4.13 8.945 4.13 6.245C4.13 3.48875 6.3575 1.25 9.125 1.25C11.8813 1.25 14.12 3.48875 14.12 6.245C14.1088 8.945 11.9825 11.1387 9.305 11.2287Z" stroke="#292D32" stroke-width="1.5" stroke-linecap="round" stroke-linejoin="round"/>
<path d="M17.4613 3.5C19.6438 3.5 21.3988 5.26625 21.3988 7.4375C21.3988 9.56375 19.7113 11.2962 17.6075 11.375C17.5175 11.3638 17.4163 11.3638 17.315 11.375" stroke="#292D32" stroke-width="1.5" stroke-linecap="round" stroke-linejoin="round"/>
<path d="M3.68 15.38C0.957497 17.2025 0.957497 20.1725 3.68 21.9837C6.77375 24.0537 11.8475 24.0537 14.9412 21.9837C17.6638 20.1612 17.6638 17.1913 14.9412 15.38C11.8587 13.3213 6.785 13.3213 3.68 15.38Z" stroke="#292D32" stroke-width="1.5" stroke-linecap="round" stroke-linejoin="round"/>
<path d="M19.6325 21.5C20.4425 21.3312 21.2075 21.005 21.8375 20.5212C23.5925 19.205 23.5925 17.0337 21.8375 15.7175C21.2188 15.245 20.465 14.93 19.6663 14.75" stroke="#292D32" stroke-width="1.5" stroke-linecap="round" stroke-linejoin="round"/>
</svg>
