<svg width="22" height="22" viewBox="0 0 22 22" fill="none" xmlns="http://www.w3.org/2000/svg">
<path d="M6.78753 4.54053H14.9326C15.4937 4.54053 15.9914 4.55869 16.4349 4.62226C18.815 4.88561 19.4576 6.01168 19.4576 9.08113V12.7136C19.4576 15.783 18.815 16.9091 16.4349 17.1725C15.9914 17.236 15.4937 17.2542 14.9326 17.2542H6.78753C6.22643 17.2542 5.72868 17.236 5.28523 17.1725C2.90507 16.9091 2.26251 15.783 2.26251 12.7136V9.08113C2.26251 6.01168 2.90507 4.88561 5.28523 4.62226C5.72868 4.55869 6.22643 4.54053 6.78753 4.54053Z" stroke="#4C4C4C" stroke-width="1.5" stroke-linecap="round" stroke-linejoin="round"/>
<path d="M4.07251 1.81616H17.6476" stroke="#4C4C4C" stroke-width="1.5" stroke-linecap="round" stroke-linejoin="round"/>
<path d="M4.52502 19.9785H18.1001" stroke="#4C4C4C" stroke-width="1.5" stroke-linecap="round" stroke-linejoin="round"/>
</svg>
