<svg width="17" height="25" viewBox="0 0 17 25" fill="none" xmlns="http://www.w3.org/2000/svg">
<path d="M16 13V17.3529C16 21.0235 12.6423 24 8.5 24C4.35769 24 1 21.0235 1 17.3529V13C1 16.6706 4.35769 19.2941 8.5 19.2941C12.6423 19.2941 16 16.6706 16 13Z" stroke="#292D32" stroke-width="1.5" stroke-linecap="round" stroke-linejoin="round"/>
<path d="M16 7.67727C16 8.75273 15.7115 9.74545 15.2038 10.5964C13.9692 12.6764 11.4308 14 8.5 14C5.56923 14 3.03077 12.6764 1.79616 10.5964C1.28846 9.74545 1 8.75273 1 7.67727C1 5.83364 1.8423 4.16727 3.1923 2.96182C4.55384 1.74455 6.42308 1 8.5 1C10.5769 1 12.4462 1.74455 13.8077 2.95C15.1577 4.16727 16 5.83364 16 7.67727Z" stroke="#292D32" stroke-width="1.5" stroke-linecap="round" stroke-linejoin="round"/>
<path d="M16 7.35625V12.9813C16 16.4913 12.6423 19 8.5 19C4.35769 19 1 16.4913 1 12.9813V7.35625C1 3.84625 4.35769 1 8.5 1C10.5769 1 12.4462 1.70875 13.8077 2.85625C15.1577 4.015 16 5.60125 16 7.35625Z" stroke="#292D32" stroke-width="1.5" stroke-linecap="round" stroke-linejoin="round"/>
</svg>
