<svg width="19" height="19" viewBox="0 0 19 19" fill="none" xmlns="http://www.w3.org/2000/svg">
<path d="M8.01529 0.495637C8.43636 0.174815 8.95979 0 9.49932 0C10.0388 0 10.5623 0.174815 10.9834 0.495637L18.1084 5.91684C18.6716 6.34537 19 6.99462 19 7.68131V16.7412C19 17.3402 18.7498 17.9148 18.3044 18.3384C17.859 18.762 17.2549 19 16.625 19H11.875C11.605 19 11.3462 18.898 11.1553 18.7165C10.9644 18.5349 10.8571 18.2887 10.8571 18.0319V11.2554H8.14286V18.0319C8.14286 18.2887 8.03562 18.5349 7.84473 18.7165C7.65385 18.898 7.39495 19 7.125 19H2.375C1.74511 19 1.14102 18.762 0.695621 18.3384C0.250222 17.9148 0 17.3402 0 16.7412V7.68002C0 6.99462 0.328429 6.34537 0.891643 5.91684L8.01529 0.495637ZM9.71171 2.00712C9.65159 1.96146 9.57694 1.93659 9.5 1.93659C9.42306 1.93659 9.34841 1.96146 9.28829 2.00712L2.16329 7.42832C2.12337 7.45863 2.09117 7.49713 2.06908 7.54094C2.04699 7.58474 2.03558 7.63273 2.03571 7.68131V16.7412C2.03571 16.9193 2.18771 17.0639 2.375 17.0639H6.10714V10.2874C6.10714 10.0306 6.21438 9.78438 6.40527 9.60283C6.59615 9.42128 6.85505 9.31929 7.125 9.31929H11.875C12.145 9.31929 12.4038 9.42128 12.5947 9.60283C12.7856 9.78438 12.8929 10.0306 12.8929 10.2874V17.0639H16.625C16.715 17.0639 16.8013 17.0299 16.8649 16.9693C16.9285 16.9088 16.9643 16.8267 16.9643 16.7412V7.68002C16.9642 7.63165 16.9527 7.58392 16.9306 7.54035C16.9085 7.49679 16.8765 7.4585 16.8367 7.42832L9.71171 2.00712Z" fill="#1B2876"/>
</svg>
